<?xml version="1.0" standalone="no"?>
<!DOCTYPE svg PUBLIC "-//W3C//DTD SVG 20010904//EN"
 "http://www.w3.org/TR/2001/REC-SVG-20010904/DTD/svg10.dtd">
<svg version="1.0" xmlns="http://www.w3.org/2000/svg"
 width="113.000000pt" height="113.000000pt" viewBox="0 0 113.000000 113.000000"
 preserveAspectRatio="xMidYMid meet">
<metadata>
Created by potrace 1.14, written by Peter Selinger 2001-2017
</metadata>
<g transform="translate(0.000000,113.000000) scale(0.100000,-0.100000)"
fill="#000000" stroke="none">
<path d="M325 916 c-5 -2 -22 -7 -37 -10 -35 -8 -93 -58 -126 -111 -23 -34
-27 -51 -27 -115 0 -56 5 -84 20 -112 24 -45 260 -288 279 -288 7 0 19 -7 26
-15 7 -8 16 -12 21 -9 5 3 9 0 9 -7 0 -6 8 -9 20 -6 10 3 21 0 24 -7 3 -7 5
-6 5 3 1 11 4 11 16 1 10 -8 15 -9 15 -2 0 6 7 9 15 6 8 -3 20 -2 27 2 7 5 18
9 24 10 38 6 189 142 296 267 61 70 72 190 25 270 -25 41 -72 85 -122 113 -31
17 -161 16 -176 -2 -6 -8 -17 -14 -24 -14 -7 0 -27 -14 -44 -32 l-30 -31 -26
25 c-14 15 -42 34 -61 43 -34 16 -128 29 -149 21z"/>
</g>
</svg>
